<svg xmlns="http://www.w3.org/2000/svg" width="48" height="48" viewBox="0 0 48 48" fill="none">
  <!-- Neural network / cortex logo -->
  <!-- Connection lines -->
  <line x1="24" y1="8" x2="12" y2="20" stroke="#7c3aed" stroke-width="2" stroke-linecap="round" opacity="0.6"/>
  <line x1="24" y1="8" x2="36" y2="20" stroke="#7c3aed" stroke-width="2" stroke-linecap="round" opacity="0.6"/>
  <line x1="12" y1="20" x2="24" y2="28" stroke="#7c3aed" stroke-width="2" stroke-linecap="round" opacity="0.6"/>
  <line x1="36" y1="20" x2="24" y2="28" stroke="#7c3aed" stroke-width="2" stroke-linecap="round" opacity="0.6"/>
  <line x1="12" y1="20" x2="8" y2="34" stroke="#7c3aed" stroke-width="2" stroke-linecap="round" opacity="0.6"/>
  <line x1="36" y1="20" x2="40" y2="34" stroke="#7c3aed" stroke-width="2" stroke-linecap="round" opacity="0.6"/>
  <line x1="24" y1="28" x2="16" y2="40" stroke="#7c3aed" stroke-width="2" stroke-linecap="round" opacity="0.6"/>
  <line x1="24" y1="28" x2="32" y2="40" stroke="#7c3aed" stroke-width="2" stroke-linecap="round" opacity="0.6"/>
  <line x1="8" y1="34" x2="16" y2="40" stroke="#7c3aed" stroke-width="2" stroke-linecap="round" opacity="0.6"/>
  <line x1="40" y1="34" x2="32" y2="40" stroke="#7c3aed" stroke-width="2" stroke-linecap="round" opacity="0.6"/>
  <line x1="12" y1="20" x2="36" y2="20" stroke="#7c3aed" stroke-width="1.5" stroke-linecap="round" opacity="0.3"/>
  <line x1="8" y1="34" x2="24" y2="28" stroke="#7c3aed" stroke-width="1.5" stroke-linecap="round" opacity="0.3"/>
  <line x1="40" y1="34" x2="24" y2="28" stroke="#7c3aed" stroke-width="1.5" stroke-linecap="round" opacity="0.3"/>
  <!-- Nodes -->
  <circle cx="24" cy="8" r="4" fill="#7c3aed"/>
  <circle cx="12" cy="20" r="3.5" fill="#8b5cf6"/>
  <circle cx="36" cy="20" r="3.5" fill="#8b5cf6"/>
  <circle cx="24" cy="28" r="4.5" fill="#6d28d9"/>
  <circle cx="8" cy="34" r="3" fill="#a78bfa"/>
  <circle cx="40" cy="34" r="3" fill="#a78bfa"/>
  <circle cx="16" cy="40" r="3" fill="#8b5cf6"/>
  <circle cx="32" cy="40" r="3" fill="#8b5cf6"/>
  <!-- Center glow -->
  <circle cx="24" cy="28" r="2" fill="#c4b5fd" opacity="0.8"/>
</svg>